<svg xmlns="http://www.w3.org/2000/svg" width="20" height="20" viewBox="0 0 48 48">
  <path fill="#FFC107" d="M43.6 20.1H42V20H24v8h11.3C33.2 33.4 29 36 24 36c-6.6 0-12-5.4-12-12s5.4-12 12-12c3 0 5.8 1.1 7.9 3l5.7-5.7C34.2 6.1 29.4 4 24 4 12.9 4 4 12.9 4 24s8.9 20 20 20 20-8.9 20-20c0-1.3-.1-2.7-.4-3.9z"/>
  <path fill="#FF3D00" d="M6.3 14.7l6.6 4.8C14.7 16.2 19 12 24 12c3 0 5.8 1.1 7.9 3l5.7-5.7C34.2 6.1 29.4 4 24 4 16.2 4 9.4 8.5 6.3 14.7z"/>
  <path fill="#4CAF50" d="M24 44c5 0 9.7-1.9 13.2-5l-6.1-5.4C29 36.5 26.6 37.3 24 37.3c-5 0-9.2-3.2-10.7-7.7l-6.6 5.1C9.4 39.5 16.2 44 24 44z"/>
  <path fill="#1976D2" d="M43.6 20.1H42V20H24v8h11.3c-1.1 2.8-3.1 5.2-5.8 6.7l6.1 5.4C38.7 36.4 44 30.9 44 24c0-1.3-.1-2.7-.4-3.9z"/>
</svg>