<!DOCTYPE svg PUBLIC "-//W3C//DTD SVG 1.1//EN" "http://www.w3.org/Graphics/SVG/1.1/DTD/svg11.dtd">
<!-- Uploaded to: SVG Repo, www.svgrepo.com, Transformed by: SVG Repo Mixer Tools -->
<svg fill="#008cb4" version="1.1" id="Capa_1" xmlns="http://www.w3.org/2000/svg" xmlns:xlink="http://www.w3.org/1999/xlink" width="251px" height="251px" viewBox="0 0 38.926 38.926" xml:space="preserve" stroke="#008cb4" stroke-width="0.00038926000000000005">
<g id="SVGRepo_bgCarrier" stroke-width="0"/>
<g id="SVGRepo_tracerCarrier" stroke-linecap="round" stroke-linejoin="round"/>
<g id="SVGRepo_iconCarrier"> <g> <path d="M25.264,2.918l-2.002,5.143h-2.17c-0.006,0-0.012,0.004-0.02,0.004h-6.424c-2.367,0-4.293,1.801-4.293,4.012v0.121 l-2.301-0.022v-1.875H0v17.166h8.055v-1.424l2.439-0.002c0.481,1.676,2.16,2.916,4.152,2.916h0.484l-0.675,1.732l13.666,5.318 L38.926,8.235L25.264,2.918z M14.648,26.955c-1.264,0-2.291-0.854-2.291-1.916v-1.001l-4.302,0.003v-9.867l4.302,0.043v-2.141 c0-1.109,1.027-2.012,2.291-2.012h10.629c0.002,0,0.006-0.002,0.008-0.002c0.383,0.006,0.705,0.42,0.705,0.911 c0,0.495-0.326,0.914-0.713,0.914l-4.238,0.001l-0.182,0.01c-0.531,0.029-0.949,0.469-0.949,1c0,0.805,0,0.948-1.342,0.948h-3.564 c-0.554,0-1,0.447-1,1c0,0.554,0.446,1,1,1h3.565c0.596,0,1.219-0.058,1.768-0.264l-4.424,11.371L14.648,26.955L14.648,26.955z M24.871,24.143c-2.584-1.004-3.863-3.916-2.857-6.502s3.916-3.863,6.5-2.859c2.586,1.007,3.865,3.918,2.861,6.501 C30.369,23.869,27.459,25.148,24.871,24.143z M30.068,20.102c0.297-0.768,0.371-1.355,0.217-1.771 c-0.152-0.414-0.57-0.753-1.25-1.019c-0.629-0.246-1.117-0.271-1.465-0.082c-0.349,0.189-0.699,0.683-1.06,1.471l-0.104,0.238 L24.8,18.309l0.065-0.168c0.232-0.596,0.589-0.801,1.062-0.613l0.117,0.041l0.41-1.049l-0.146-0.059 c-0.633-0.246-1.121-0.266-1.469-0.057c-0.352,0.211-0.684,0.719-1,1.533l-0.625-0.244l-0.281,0.731l0.623,0.244 c-0.332,0.852-0.438,1.479-0.316,1.889c0.123,0.409,0.513,0.738,1.168,0.996c0.681,0.266,1.201,0.287,1.57,0.072 c0.367-0.219,0.721-0.752,1.051-1.605l1.742,0.68l-0.065,0.158c-0.171,0.438-0.341,0.695-0.502,0.775 c-0.166,0.082-0.445,0.047-0.841-0.105l-0.11-0.043l-0.422,1.084l0.219,0.09c0.646,0.252,1.162,0.271,1.547,0.062 c0.384-0.209,0.724-0.691,1.021-1.459l0.084-0.205l0.721,0.279l0.283-0.73l-0.719-0.279L30.068,20.102z M26.02,19.812 c-0.248,0.641-0.643,0.855-1.174,0.648c-0.51-0.199-0.639-0.617-0.389-1.262l0.055-0.158l1.576,0.613 C26.045,19.752,26.02,19.805,26.02,19.812z M29.117,19.811l-0.062,0.156l-1.697-0.662c0.189-0.492,0.367-0.795,0.531-0.908 c0.166-0.115,0.41-0.106,0.736,0.021C29.225,18.649,29.389,19.113,29.117,19.811z"/> </g> </g>
</svg>